<svg xmlns="http://www.w3.org/2000/svg" width="381" height="83" fill="none" viewBox="0 0 381 83"><path fill="#000" d="M166.235 51.9936L159.281 31.3906L152.292 51.9936H150.259L141.63 27.454H143.763L151.243 49.0072L158.46 27.454H160.1L167.252 49.0072L174.732 27.454H176.897L168.269 51.9936H166.235Z"/><path fill="#000" d="M189.82 40.7406V51.9936H187.983V50.1889C187.341 50.8731 186.563 51.4139 185.698 51.7757C184.833 52.1376 183.901 52.3123 182.963 52.2885C180.043 52.2885 177.944 50.517 177.944 47.7279C177.944 44.5131 180.437 42.8403 184.21 42.8403C185.453 42.8357 186.694 42.9455 187.917 43.1684V40.8715C187.917 38.3129 186.408 36.7709 184.111 36.7709C183.239 36.7499 182.376 36.9493 181.602 37.3508C180.828 37.7522 180.168 38.3426 179.682 39.0673L178.469 37.9193C179.12 37.0059 179.99 36.2696 180.998 35.7769C182.006 35.2843 183.121 35.051 184.242 35.098C184.994 35.0465 185.747 35.1578 186.452 35.424C187.156 35.6903 187.795 36.1054 188.324 36.6411C188.854 37.1767 189.261 37.8202 189.519 38.5277C189.777 39.2351 189.88 39.99 189.82 40.7406V40.7406ZM179.847 47.5971C179.847 49.5658 181.323 50.6479 183.422 50.6479C184.283 50.6145 185.127 50.4018 185.901 50.0234C186.675 49.6451 187.362 49.1094 187.917 48.4506V44.7104C186.803 44.5015 185.671 44.4024 184.537 44.4145C181.684 44.4145 179.847 45.3334 179.847 47.5971V47.5971Z"/><path fill="#000" d="M203.924 51.3373C203.1 51.854 202.141 52.1163 201.168 52.0912C198.774 52.0912 196.838 50.6147 196.838 47.5317L196.87 37.0658H193.361V35.393H196.87L196.904 29.849H198.839L198.806 35.393H203.497V37.0658H198.806L198.741 47.269C198.741 49.3686 199.954 50.353 201.431 50.353C202.104 50.3808 202.766 50.1717 203.301 49.7621L203.924 51.3373Z"/><path fill="#000" d="M220.327 44.2182H207.86C207.86 48.2533 210.517 50.6147 213.962 50.6147C214.928 50.6533 215.889 50.4625 216.768 50.0578C217.646 49.6532 218.416 49.0461 219.014 48.2865L220.228 49.4018C219.485 50.3431 218.53 51.0953 217.441 51.597C216.352 52.0987 215.16 52.3357 213.962 52.2885C209.533 52.2885 205.924 49.2699 205.924 43.8569C205.924 38.4438 209.369 35.0981 213.666 35.0981C218.259 35.0981 220.851 38.2797 220.327 44.2182ZM207.893 42.5776H218.522C218.587 38.9033 216.685 36.7709 213.601 36.7709C210.517 36.7709 208.188 39.1 207.893 42.5776V42.5776Z"/><path fill="#000" d="M232.265 37.2299C231.285 37.2603 230.324 37.5122 229.455 37.9668C228.586 38.4214 227.831 39.0669 227.246 39.8549V51.9936H225.343V35.393H227.246V37.8207C227.862 37.0419 228.644 36.4107 229.535 35.9735C230.426 35.5363 231.404 35.3043 232.397 35.2944L232.265 37.2299Z"/><path fill="#000" d="M260.412 41.5278V51.9936H258.51V41.7905C258.51 38.936 256.968 36.8696 254.212 36.8696C253.184 36.9158 252.18 37.2006 251.28 37.7016C250.38 38.2026 249.61 38.9061 249.029 39.7563C249.135 40.3076 249.19 40.8676 249.193 41.4291V51.9936H247.29V41.7905C247.29 38.936 245.715 36.8696 242.992 36.8696C242.011 36.8942 241.048 37.1436 240.178 37.5985C239.308 38.0534 238.553 38.7017 237.973 39.4936V51.9936H236.07V35.393H237.907V37.6567C238.562 36.8371 239.397 36.1797 240.347 35.7359C241.297 35.2921 242.337 35.0738 243.386 35.0981C244.444 35.0475 245.494 35.3099 246.404 35.8525C247.314 36.3951 248.044 37.1938 248.503 38.1489C249.21 37.1975 250.131 36.4257 251.191 35.8957C252.251 35.3658 253.421 35.0925 254.606 35.0981C258.149 35.0981 260.412 37.6894 260.412 41.5278Z"/><path fill="#000" d="M279.568 44.2182H267.101C267.101 48.2533 269.759 50.6147 273.203 50.6147C274.17 50.6533 275.131 50.4624 276.009 50.0578C276.887 49.6531 277.657 49.0461 278.255 48.2865L279.469 49.4018C278.726 50.3431 277.772 51.0953 276.683 51.597C275.594 52.0987 274.402 52.3357 273.203 52.2885C268.774 52.2885 265.165 49.2699 265.165 43.8569C265.165 38.4438 268.611 35.0981 272.908 35.0981C277.501 35.0981 280.092 38.2797 279.568 44.2182ZM267.134 42.5776H277.763C277.829 38.9033 275.926 36.7709 272.842 36.7709C269.759 36.7709 267.429 39.1 267.134 42.5776Z"/><path fill="#000" d="M284.584 51.9936V26.5024H286.488V51.9936H284.584Z"/><path fill="#000" d="M308.007 43.6928C307.953 45.3253 307.42 46.9058 306.475 48.2374C305.529 49.5691 304.212 50.5929 302.688 51.1813C301.164 51.7696 299.501 51.8966 297.906 51.5462C296.311 51.1959 294.854 50.3837 293.717 49.2111C292.58 48.0384 291.813 46.557 291.512 44.9516C291.211 43.3462 291.39 41.6878 292.025 40.183C292.66 38.6782 293.724 37.3937 295.084 36.4895C296.445 35.5852 298.041 35.1013 299.674 35.0981C300.795 35.0824 301.907 35.296 302.943 35.7258C303.978 36.1556 304.915 36.7925 305.695 37.5974C306.476 38.4022 307.083 39.3581 307.481 40.4063C307.878 41.4545 308.057 42.5729 308.007 43.6928ZM293.278 43.6928C293.278 47.8598 296.164 50 299.674 50C303.185 50 306.072 47.8598 306.072 43.6928C306.072 39.4614 303.185 36.7709 299.674 36.7709C296.164 36.7709 293.278 39.4614 293.278 43.6928Z"/><path fill="#000" d="M326.115 41.5278V51.9936H324.211V41.7905C324.211 38.936 322.571 36.8695 319.816 36.8695C318.829 36.8932 317.861 37.1419 316.986 37.5966C316.11 38.0514 315.35 38.7002 314.763 39.4935V51.9935H312.861V35.393H314.731V37.624C315.388 36.8097 316.224 36.1581 317.174 35.72C318.125 35.2819 319.163 35.0691 320.209 35.0981C323.785 35.0981 326.115 37.6894 326.115 41.5278Z"/><path fill="#000" d="M348.354 27.454C354.882 27.454 361.017 31.4892 361.017 39.7236C361.017 47.9906 354.882 51.9936 348.354 51.9936H340.119V27.454H348.354ZM342.154 50.1557H348.354C353.702 50.1557 358.983 46.8754 358.983 39.7236C358.983 32.5717 353.702 29.2909 348.354 29.2909H342.154V50.1557Z"/><path fill="#000" d="M372.463 27.454C376.696 27.454 379.485 29.6518 379.485 33.8183C379.485 36.7709 378.107 38.6078 376.434 39.2641C378.598 39.8876 380.206 41.8559 380.206 45.268C380.206 49.8276 377.188 51.9936 372.791 51.9936H366.164V27.454H372.463ZM368.2 38.477H372.923C375.778 38.477 377.417 36.9677 377.417 33.8842C377.417 30.8002 375.482 29.2909 372.399 29.2909H368.2V38.477ZM368.2 50.1557H372.66C376.039 50.1557 378.172 48.4828 378.172 45.2348C378.172 41.9213 376.401 40.2812 373.054 40.2812H368.2V50.1557Z"/><path fill="url(#paint0_linear)" d="M122.098 24.099L118.931 28.793C102.08 17.4419 82.224 11.3783 61.9062 11.3783C41.5883 11.3783 21.7328 17.4419 4.88139 28.793L1.71397 24.099C19.5002 12.1146 40.4591 5.71242 61.9062 5.71242C83.3533 5.71242 104.312 12.1146 122.098 24.099Z"/><path fill="#06965B" d="M123.184 22.4894L122.098 24.099C104.312 12.1146 83.3533 5.71241 61.9062 5.71241C40.4591 5.71241 19.5002 12.1146 1.71398 24.099L0.628788 22.4894C0.354181 22.0835 0.163855 21.6267 0.0690952 21.1459C-0.0256645 20.6652 -0.0229305 20.1703 0.0771366 19.6906C0.177204 19.2109 0.372567 18.7562 0.651641 18.3534C0.930716 17.9506 1.28782 17.608 1.70179 17.3458C19.7373 6.01243 40.6055 0 61.9062 0C83.207 0 104.075 6.01243 122.111 17.3458C122.525 17.608 122.882 17.9506 123.161 18.3534C123.44 18.7562 123.635 19.2109 123.735 19.6906C123.835 20.1703 123.838 20.6652 123.743 21.1459C123.649 21.6267 123.458 22.0835 123.184 22.4894V22.4894Z"/><path fill="url(#paint1_linear)" d="M61.9061 11.3783C41.5834 11.3458 21.7185 17.4123 4.88129 28.7931L8.05271 33.4949L39.7669 80.5314C40.1021 81.0286 40.5543 81.4359 41.0838 81.7175C41.6132 81.9991 42.2037 82.1464 42.8034 82.1464C43.4031 82.1464 43.9936 81.9992 44.523 81.7177C45.0525 81.4361 45.5047 81.0289 45.84 80.5317L58.8696 61.2085C59.2049 60.7113 59.6571 60.3041 60.1866 60.0225C60.716 59.7409 61.3065 59.5937 61.9062 59.5937C62.5059 59.5937 63.0964 59.7409 63.6258 60.0225C64.1553 60.3041 64.6075 60.7113 64.9428 61.2085L77.9724 80.5317C78.3076 81.0289 78.7598 81.4361 79.2893 81.7177C79.8187 81.9992 80.4092 82.1464 81.0089 82.1464C81.6085 82.1464 82.199 81.9991 82.7284 81.7175C83.2578 81.4359 83.71 81.0286 84.0452 80.5314L115.76 33.4949L118.931 28.7931C102.094 17.4123 82.2288 11.3457 61.9061 11.3783V11.3783Z"/><path fill="#641414" d="M43.6968 48.7672C45.3668 48.7672 46.7206 47.4134 46.7206 45.7433C46.7206 44.0733 45.3668 42.7195 43.6968 42.7195C42.0268 42.7195 40.6729 44.0733 40.6729 45.7433C40.6729 47.4134 42.0268 48.7672 43.6968 48.7672Z"/><path fill="#641414" d="M80.1156 48.7672C81.7856 48.7672 83.1395 47.4134 83.1395 45.7433C83.1395 44.0733 81.7856 42.7195 80.1156 42.7195C78.4456 42.7195 77.0918 44.0733 77.0918 45.7433C77.0918 47.4134 78.4456 48.7672 80.1156 48.7672Z"/><path fill="#641414" d="M50.6961 32.3613C52.3661 32.3613 53.7199 31.0074 53.7199 29.3374C53.7199 27.6674 52.3661 26.3136 50.6961 26.3136C49.0261 26.3136 47.6723 27.6674 47.6723 29.3374C47.6723 31.0074 49.0261 32.3613 50.6961 32.3613Z"/><path fill="#641414" d="M73.1163 32.3613C74.7863 32.3613 76.1401 31.0074 76.1401 29.3374C76.1401 27.6674 74.7863 26.3136 73.1163 26.3136C71.4463 26.3136 70.0925 27.6674 70.0925 29.3374C70.0925 31.0074 71.4463 32.3613 73.1163 32.3613Z"/><path fill="#641414" d="M30.1134 37.5004C31.7834 37.5004 33.1373 36.1465 33.1373 34.4765C33.1373 32.8065 31.7834 31.4527 30.1134 31.4527C28.4434 31.4527 27.0896 32.8065 27.0896 34.4765C27.0896 36.1465 28.4434 37.5004 30.1134 37.5004Z"/><path fill="#641414" d="M93.699 37.5004C95.369 37.5004 96.7228 36.1465 96.7228 34.4765C96.7228 32.8065 95.369 31.4527 93.699 31.4527C92.0289 31.4527 90.6751 32.8065 90.6751 34.4765C90.6751 36.1465 92.0289 37.5004 93.699 37.5004Z"/><path fill="#641414" d="M61.9062 46.205C63.5762 46.205 64.93 44.8512 64.93 43.1811C64.93 41.5111 63.5762 40.1573 61.9062 40.1573C60.2362 40.1573 58.8824 41.5111 58.8824 43.1811C58.8824 44.8512 60.2362 46.205 61.9062 46.205Z"/><defs><linearGradient id="paint0_linear" x1="31.428" x2="92.384" y1="55.34" y2="-5.615" gradientUnits="userSpaceOnUse"><stop stop-color="#F9ED95"/><stop offset=".446" stop-color="#F5EB92"/><stop offset=".908" stop-color="#E8E68A"/><stop offset="1" stop-color="#E5E588"/></linearGradient><linearGradient id="paint1_linear" x1="29.156" x2="94.656" y1="70.019" y2="4.518" gradientUnits="userSpaceOnUse"><stop stop-color="#FF6652"/><stop offset=".513" stop-color="#FF5050"/><stop offset="1" stop-color="#FF3B61"/></linearGradient></defs></svg>